<svg width="35" height="35" viewBox="0 0 35 35" fill="none" xmlns="http://www.w3.org/2000/svg">
<path d="M30.1876 1.3999C29.3153 1.3999 28.4458 1.7417 27.7813 2.40615L27.2126 2.9749L32.0251 7.7874C32.0224 7.79014 32.5938 7.21865 32.5938 7.21865C33.9255 5.88701 33.9227 3.73506 32.5938 2.40615C31.9266 1.7417 31.0598 1.3999 30.1876 1.3999ZM26.1407 4.22178C25.9821 4.24365 25.8345 4.32295 25.7251 4.44053L3.01883 27.1687C2.9286 27.2507 2.86024 27.3573 2.82196 27.4749L1.42196 32.7249C1.35907 32.9655 1.43016 33.2198 1.60516 33.3948C1.78016 33.5698 2.03446 33.6409 2.27508 33.578L7.52508 32.178C7.64266 32.1397 7.7493 32.0714 7.83133 31.9812L30.5595 9.2749C30.8384 9.0042 30.8411 8.5585 30.5704 8.27959C30.2997 8.00068 29.854 7.99795 29.5751 8.26865L6.97821 30.8655L4.13446 28.0218L26.7313 5.4249C26.9419 5.22256 27.0048 4.90811 26.8872 4.64014C26.7696 4.37217 26.4989 4.20537 26.2063 4.22178C26.1845 4.22178 26.1626 4.22178 26.1407 4.22178Z" fill="#FC6A00"/>
</svg>
